<svg width="20" height="18" viewBox="0 0 20 18" fill="none" xmlns="http://www.w3.org/2000/svg">
<g opacity="0.3">
<path fill-rule="evenodd" clip-rule="evenodd" d="M14.6667 10.9988C18.8293 7.4654 19.7659 4.39404 20 0.0451991C15.8374 -0.199423 12.8195 0.452903 9.02114 4.39404C7.25203 4.1766 5.43089 4.7202 4 6.05203L6.36748 8.82442C5.22276 9.91163 5.1187 11.7871 6.15935 13.0102C6.75772 13.6897 7.56423 14.0158 8.39675 13.9887C9.02114 13.9615 9.67154 13.7169 10.1659 13.2276L12.5333 16C13.9642 14.6953 14.6667 12.8471 14.6667 10.9988ZM15.8374 3.95915C16.5138 4.77456 16.4618 5.99767 15.6813 6.73154C15.3431 7.03052 14.9268 7.1936 14.5106 7.22078C13.9382 7.24796 13.4179 7.00334 13.0276 6.56846C12.3512 5.75305 12.4033 4.52994 13.1837 3.79607C13.4959 3.49709 13.9122 3.33401 14.3545 3.30683C14.9268 3.27965 15.4472 3.52427 15.8374 3.95915Z" fill="#11223E"/>
<path d="M0 18L0.136521 17.5628C0.163825 17.4536 0.92834 14.8579 1.91129 13.847C2.45737 13.3005 3.11267 13 3.71336 13C4.09562 13 4.39597 13.1093 4.6417 13.3552C5.2697 13.9836 5.05126 15.1858 4.15023 16.0874C3.08537 17.153 0.546083 17.8361 0.436866 17.8907L0 18Z" fill="#11223E"/>
</g>
</svg>
